<?xml version="1.0" encoding="utf-8"?>
<!-- Generator: Adobe Illustrator 21.0.0, SVG Export Plug-In . SVG Version: 6.00 Build 0)  -->
<svg version="1.1" id="Layer_1" xmlns="http://www.w3.org/2000/svg" xmlns:xlink="http://www.w3.org/1999/xlink" x="0px" y="0px"
	 viewBox="0 0 672.2 153.1" style="enable-background:new 0 0 672.2 153.1;" xml:space="preserve">
<style type="text/css">
	.st0{fill:#173E43;}
	.st1{fill:#3FB0AC;}
</style>
<g>
	<g>
		<path class="st0" d="M49.4,87.8c-3.3-3.3-8.6-3.3-11.8,0s-3.3,8.6,0,11.8l51.1,51.1c3.3,3.3,8.6,3.3,11.8,0s3.3-8.6,0-11.8
			L49.4,87.8z"/>
		<path class="st0" d="M104.5,65.3c3.3,3.3,8.6,3.3,11.8,0s3.3-8.6,0-11.8L65.3,2.4c-3.3-3.3-8.6-3.3-11.8,0
			c-3.3,3.3-3.3,8.6,0,11.8L104.5,65.3z"/>
		<path class="st1" d="M150.6,52.7L150.6,52.7c-3.3-3.3-8.6-3.3-11.8,0l-51.1,51.1c-3.3,3.3-3.3,8.6,0,11.8l0,0
			c3.3,3.3,8.6,3.3,11.8,0l51.1-51.1C153.9,61.2,153.9,55.9,150.6,52.7z"/>
		<path class="st0" d="M65.3,36.7c-3.3-3.3-8.6-3.3-11.8,0L2.4,87.8c-3.3,3.3-3.3,8.6,0,11.8s8.6,3.3,11.8,0l51.1-51.1
			C68.6,45.3,68.6,40,65.3,36.7z"/>
	</g>
	<g>
		<path class="st0" d="M191.5,91.3c0.1,1.9,0.9,3.6,2.4,5.1c1.4,1.5,3.6,2.3,6.5,2.3c2.2,0,3.8-0.5,4.8-1.4c1-0.9,1.6-2.1,1.6-3.4
			c0-1.1-0.4-2.1-1.2-2.9c-0.8-0.8-2.1-1.4-4-1.8l-6.4-1.5c-4.7-1-8.1-2.9-10.3-5.4c-2.2-2.6-3.2-5.6-3.2-9c0-2.2,0.5-4.2,1.4-6.1
			c0.9-1.9,2.2-3.6,3.8-5c1.6-1.4,3.5-2.5,5.7-3.4c2.2-0.8,4.6-1.3,7.2-1.3c3.4,0,6.3,0.5,8.6,1.4c2.4,0.9,4.3,2.1,5.7,3.6
			c1.5,1.4,2.6,3,3.3,4.6c0.7,1.6,1.1,3.1,1.3,4.4l-10.9,2.5c-0.1-0.7-0.3-1.5-0.6-2.2c-0.3-0.8-0.8-1.5-1.4-2.1
			c-0.7-0.7-1.5-1.2-2.4-1.6c-0.9-0.4-2.1-0.6-3.5-0.6c-1.7,0-3.2,0.5-4.4,1.4c-1.2,0.9-1.8,2.1-1.8,3.4c0,1.2,0.4,2.1,1.2,2.8
			c0.8,0.7,1.9,1.2,3.2,1.5l6.9,1.5c4.8,1,8.3,2.8,10.7,5.5c2.4,2.7,3.6,5.8,3.6,9.3c0,2-0.4,3.9-1.1,5.8c-0.8,1.9-1.9,3.6-3.5,5.1
			c-1.6,1.5-3.5,2.7-5.9,3.6c-2.4,0.9-5.1,1.4-8.2,1.4c-3.7,0-6.7-0.5-9.2-1.6c-2.5-1-4.5-2.3-6.1-3.8c-1.6-1.5-2.7-3.1-3.5-4.9
			c-0.8-1.7-1.2-3.3-1.3-4.7L191.5,91.3z"/>
		<path class="st0" d="M229.6,107.1v-71h13v71H229.6z"/>
		<path class="st0" d="M253.3,94c0-2.2,0.4-4.1,1.1-5.7c0.8-1.7,1.8-3.1,3.1-4.4c1.3-1.2,2.8-2.2,4.6-2.9c1.7-0.7,3.6-1.2,5.6-1.6
			l11.9-1.8c1.4-0.2,2.3-0.6,2.8-1.2c0.5-0.6,0.8-1.4,0.8-2.2c0-1.7-0.7-3.2-2-4.4c-1.3-1.2-3.4-1.9-6.1-1.9c-2.9,0-5.1,0.8-6.6,2.4
			c-1.5,1.6-2.4,3.4-2.6,5.5l-11.6-2.5c0.2-1.9,0.8-3.8,1.8-5.7c1-1.9,2.3-3.6,4-5.1c1.7-1.5,3.8-2.7,6.3-3.7
			c2.5-0.9,5.4-1.4,8.6-1.4c3.8,0,7,0.5,9.7,1.5c2.7,1,4.9,2.4,6.5,4s2.9,3.6,3.6,5.8c0.8,2.2,1.1,4.5,1.1,7v23.7
			c0,1.3,0.1,2.7,0.2,4.2c0.1,1.5,0.3,2.6,0.4,3.5h-12c-0.1-0.7-0.2-1.6-0.3-2.7c-0.1-1.1-0.1-2.2-0.1-3.1c-1.2,1.9-3,3.6-5.3,5
			c-2.3,1.4-5.3,2.2-8.9,2.2c-2.5,0-4.9-0.4-6.9-1.2c-2.1-0.8-3.8-1.9-5.2-3.2c-1.4-1.3-2.5-2.9-3.3-4.6
			C253.7,97.7,253.3,95.9,253.3,94z M272.6,98.8c1.4,0,2.7-0.2,4-0.5c1.3-0.4,2.4-1,3.4-1.9c1-0.9,1.8-2,2.4-3.4
			c0.6-1.4,0.9-3.2,0.9-5.3v-2.2l-10.9,1.7c-1.7,0.3-3.1,0.9-4.3,1.8c-1.1,0.9-1.7,2.4-1.7,4.3c0,1.4,0.5,2.7,1.6,3.9
			C269,98.2,270.5,98.8,272.6,98.8z"/>
		<path class="st0" d="M330.6,69.5c-1.7,0-3.3,0.3-4.8,0.9c-1.5,0.6-2.8,1.5-3.9,2.6c-1.1,1.1-2,2.6-2.6,4.3c-0.7,1.7-1,3.6-1,5.8
			s0.3,4.1,1,5.8c0.7,1.7,1.6,3.1,2.7,4.3c1.1,1.2,2.5,2.1,3.9,2.6c1.5,0.6,3.1,0.9,4.8,0.9c1.6,0,3.1-0.2,4.4-0.7
			c1.3-0.5,2.4-1.1,3.3-1.9c0.9-0.8,1.7-1.7,2.2-2.6c0.6-1,1-1.9,1.2-2.8l11.5,3.8c-0.5,2-1.4,4-2.6,5.9c-1.2,1.9-2.8,3.7-4.7,5.2
			c-1.9,1.5-4.1,2.8-6.7,3.7c-2.5,0.9-5.4,1.4-8.6,1.4c-3.5,0-6.8-0.6-10-1.9c-3.1-1.3-5.8-3.1-8.1-5.3c-2.3-2.3-4.1-5-5.4-8.1
			c-1.3-3.1-2-6.5-2-10.2c0-3.7,0.6-7.2,1.9-10.3c1.3-3.1,3-5.8,5.3-8.1c2.3-2.3,4.9-4,7.9-5.3c3-1.3,6.3-1.9,9.9-1.9
			c3.3,0,6.2,0.5,8.8,1.4c2.6,0.9,4.8,2.2,6.7,3.7c1.9,1.5,3.4,3.2,4.6,5.2c1.2,2,2,4,2.5,6l-11.7,3.9c-0.6-2-1.7-3.9-3.4-5.6
			C336.2,70.3,333.8,69.5,330.6,69.5z"/>
		<path class="st0" d="M390.3,79.2l19.7,27.9h-16l-12.7-18.4l-5.4,5.7v12.7h-13v-71h13v40.7l16.7-17.9h17.1L390.3,79.2z"/>
		<path class="st1" d="M417.6,107.1v-71h12.8v28c1.1-1.7,2.9-3.2,5.4-4.6c2.5-1.3,5.6-2,9.2-2c3.5,0,6.7,0.6,9.4,1.9
			c2.7,1.3,5.1,3,7,5.3c1.9,2.3,3.4,4.9,4.4,8c1,3.1,1.5,6.4,1.5,10c0,3.7-0.5,7-1.6,10.1c-1.1,3.1-2.6,5.8-4.6,8.1
			c-2,2.3-4.4,4.1-7.2,5.3c-2.8,1.3-5.9,1.9-9.3,1.9c-3.3,0-6.2-0.7-8.7-2c-2.5-1.3-4.3-3-5.6-5.1v5.9H417.6z M454.3,82.9
			c0-4.4-1.2-7.8-3.5-10.1c-2.3-2.3-5.1-3.5-8.5-3.5c-1.6,0-3.2,0.3-4.7,0.9c-1.5,0.6-2.7,1.5-3.8,2.6c-1.1,1.1-1.9,2.6-2.6,4.3
			c-0.7,1.7-1,3.7-1,5.9c0,2.2,0.3,4.1,1,5.8c0.7,1.7,1.5,3.1,2.6,4.3c1.1,1.2,2.4,2.1,3.8,2.7c1.5,0.6,3,0.9,4.7,0.9
			c3.3,0,6.2-1.2,8.5-3.5C453.1,90.8,454.3,87.4,454.3,82.9z"/>
		<path class="st1" d="M499.3,57.4c3.6,0,6.9,0.6,10,1.9c3.1,1.3,5.8,3,8,5.3c2.3,2.3,4,5,5.3,8.1c1.3,3.1,1.9,6.6,1.9,10.3
			c0,3.7-0.6,7.1-1.9,10.2c-1.3,3.1-3,5.8-5.3,8.1c-2.3,2.3-4.9,4.1-8,5.3c-3.1,1.3-6.5,1.9-10,1.9c-3.6,0-6.9-0.6-10-1.9
			c-3.1-1.3-5.8-3.1-8-5.3c-2.3-2.3-4-5-5.3-8.1c-1.3-3.1-1.9-6.5-1.9-10.2c0-3.7,0.6-7.2,1.9-10.3c1.3-3.1,3-5.8,5.3-8.1
			c2.3-2.3,4.9-4,8-5.3C492.4,58.1,495.7,57.4,499.3,57.4z M499.3,96.7c1.6,0,3.1-0.3,4.6-0.9c1.5-0.6,2.8-1.5,3.9-2.6
			c1.1-1.1,2-2.6,2.7-4.3c0.7-1.7,1-3.7,1-6s-0.3-4.3-1-6c-0.7-1.7-1.6-3.1-2.7-4.3c-1.1-1.1-2.4-2-3.9-2.6c-1.5-0.6-3-0.9-4.6-0.9
			c-1.6,0-3.1,0.3-4.6,0.9c-1.5,0.6-2.8,1.5-3.9,2.6c-1.1,1.1-2,2.6-2.7,4.3s-1,3.7-1,6s0.3,4.3,1,6c0.7,1.7,1.6,3.1,2.7,4.3
			c1.1,1.1,2.4,2,3.9,2.6C496.2,96.5,497.7,96.7,499.3,96.7z"/>
		<path class="st1" d="M532,94c0-2.2,0.4-4.1,1.1-5.7c0.8-1.7,1.8-3.1,3.1-4.4c1.3-1.2,2.8-2.2,4.6-2.9c1.7-0.7,3.6-1.2,5.6-1.6
			l11.9-1.8c1.4-0.2,2.3-0.6,2.8-1.2c0.5-0.6,0.8-1.4,0.8-2.2c0-1.7-0.7-3.2-2-4.4c-1.3-1.2-3.4-1.9-6.1-1.9c-2.9,0-5.1,0.8-6.6,2.4
			c-1.5,1.6-2.4,3.4-2.6,5.5l-11.6-2.5c0.2-1.9,0.8-3.8,1.8-5.7c1-1.9,2.3-3.6,4-5.1c1.7-1.5,3.8-2.7,6.3-3.7
			c2.5-0.9,5.4-1.4,8.6-1.4c3.8,0,7,0.5,9.7,1.5c2.7,1,4.9,2.4,6.5,4c1.7,1.7,2.9,3.6,3.6,5.8c0.8,2.2,1.1,4.5,1.1,7v23.7
			c0,1.3,0.1,2.7,0.2,4.2c0.1,1.5,0.3,2.6,0.4,3.5h-12c-0.1-0.7-0.2-1.6-0.3-2.7c-0.1-1.1-0.1-2.2-0.1-3.1c-1.2,1.9-3,3.6-5.3,5
			c-2.3,1.4-5.3,2.2-8.9,2.2c-2.5,0-4.9-0.4-6.9-1.2s-3.8-1.9-5.2-3.2c-1.4-1.3-2.5-2.9-3.3-4.6C532.3,97.7,532,95.9,532,94z
			 M551.3,98.8c1.4,0,2.7-0.2,4-0.5c1.3-0.4,2.4-1,3.4-1.9c1-0.9,1.8-2,2.4-3.4c0.6-1.4,0.9-3.2,0.9-5.3v-2.2L551,87.1
			c-1.7,0.3-3.1,0.9-4.3,1.8c-1.1,0.9-1.7,2.4-1.7,4.3c0,1.4,0.5,2.7,1.6,3.9C547.6,98.2,549.2,98.8,551.3,98.8z"/>
		<path class="st1" d="M617.1,71.8c-1.3-0.3-2.6-0.4-3.9-0.4c-1.7,0-3.3,0.2-4.8,0.7c-1.5,0.5-2.8,1.2-3.9,2.3c-1.1,1-2,2.4-2.7,4.2
			c-0.7,1.7-1,3.9-1,6.5v22.1h-13V58.9h12.6v7.2c0.7-1.6,1.6-2.9,2.8-3.9c1.1-1,2.4-1.8,3.6-2.3c1.3-0.5,2.5-0.9,3.8-1.1
			c1.3-0.2,2.4-0.3,3.5-0.3c0.5,0,1,0,1.5,0c0.5,0,1,0.1,1.5,0.1V71.8z"/>
		<path class="st1" d="M671.9,98.4c0,1.6,0,3.3,0.1,4.9c0.1,1.6,0.2,2.9,0.3,3.9h-12.5c-0.1-0.5-0.2-1.3-0.3-2.4
			c-0.1-1-0.1-2.1-0.1-3.2c-1.1,1.9-2.8,3.5-5.1,4.8c-2.3,1.3-5.1,2-8.4,2c-3.5,0-6.6-0.6-9.5-1.9c-2.9-1.3-5.3-3-7.4-5.3
			c-2.1-2.3-3.7-4.9-4.9-8c-1.2-3.1-1.8-6.5-1.8-10.1c0-3.5,0.6-6.8,1.7-9.9c1.1-3.1,2.7-5.7,4.8-8c2-2.3,4.5-4,7.3-5.3
			c2.8-1.3,6-2,9.4-2c2.1,0,3.9,0.2,5.4,0.6c1.5,0.4,2.9,0.9,4,1.5c1.1,0.6,2,1.2,2.7,1.9c0.7,0.7,1.2,1.4,1.5,2V36.2h12.8V98.4z
			 M635.4,82.9c0,4.3,1.1,7.7,3.4,10.1c2.3,2.4,5.1,3.6,8.6,3.6c3.3,0,6.1-1.2,8.4-3.6c2.3-2.4,3.4-5.8,3.4-10.2
			c0-4.3-1.1-7.6-3.4-10c-2.3-2.3-5.1-3.5-8.4-3.5c-3.3,0-6.2,1.2-8.5,3.5C636.5,75.3,635.4,78.6,635.4,82.9z"/>
	</g>
</g>
</svg>
