<?xml version="1.0" encoding="utf-8"?>
<!-- Generator: Adobe Illustrator 21.0.0, SVG Export Plug-In . SVG Version: 6.00 Build 0)  -->
<svg version="1.1" id="Layer_1" xmlns="http://www.w3.org/2000/svg" xmlns:xlink="http://www.w3.org/1999/xlink" x="0px" y="0px"
	 viewBox="0 0 279.9 279.9" style="enable-background:new 0 0 279.9 279.9;" xml:space="preserve">
<style type="text/css">
	.st0{fill:#231F20;}
	.st1{fill:#686868;}
</style>
<g>
	<path class="st0" d="M90.2,160.4c-6-6-15.7-6-21.6,0c-6,6-6,15.7,0,21.6l93.4,93.4c6,6,15.7,6,21.6,0c6-6,6-15.7,0-21.6L90.2,160.4
		z"/>
	<path class="st0" d="M191.2,119.5c6,6,15.7,6,21.6,0c6-6,6-15.7,0-21.6L119.4,4.5c-6-6-15.7-6-21.6,0c-6,6-6,15.7,0,21.6
		L191.2,119.5z"/>
	<path class="st1" d="M275.4,96.3L275.4,96.3c-6-6-15.7-6-21.6,0l-93.4,93.4c-6,6-6,15.7,0,21.6l0,0c6,6,15.7,6,21.6,0l93.4-93.4
		C281.4,112,281.4,102.3,275.4,96.3z"/>
	<path class="st0" d="M119.5,67.1L119.5,67.1c-6-6-15.7-6-21.6,0L4.5,160.5c-6,6-6,15.7,0,21.6h0c6,6,15.7,6,21.6,0l93.4-93.4
		C125.4,82.8,125.4,73.1,119.5,67.1z"/>
</g>
</svg>
